<?xml version="1.0" encoding="UTF-8"?>
<svg width="360px" height="85px" viewBox="0 0 360 85" version="1.1" xmlns="http://www.w3.org/2000/svg" xmlns:xlink="http://www.w3.org/1999/xlink">
    <!-- Generator: Sketch 52.1 (67048) - http://www.bohemiancoding.com/sketch -->
    <title>Group</title>
    <desc>Created with Sketch.</desc>
    <defs>
        <linearGradient x1="100%" y1="0%" x2="0%" y2="102.424942%" id="linearGradient-1">
            <stop stop-color="#2AF598" offset="0%"></stop>
            <stop stop-color="#009EFD" offset="100%"></stop>
        </linearGradient>
    </defs>
    <g id="Page-1" stroke="none" stroke-width="1" fill="none" fill-rule="evenodd">
        <g id="Group">
            <path d="M34.092,72.264 L11.772,72.264 L7.524,84 L0.468,84 L19.26,34.176 L26.676,34.176 L45.396,84 L38.34,84 L34.092,72.264 Z M32.22,67.152 L22.932,41.52 L13.644,67.152 L32.22,67.152 Z M69.516,43.968 C74.5560252,43.968 78.7319834,45.3119866 82.044,48 C85.3560166,50.6880134 87.3959962,54.2879774 88.164,58.8 L81.252,58.8 C80.7719976,55.9679858 79.4640107,53.748008 77.328,52.14 C75.1919893,50.531992 72.5400158,49.728 69.372,49.728 C67.0679885,49.728 64.9680095,50.2559947 63.072,51.312 C61.1759905,52.3680053 59.6520058,53.9879891 58.5,56.172 C57.3479942,58.3560109 56.772,61.0559839 56.772,64.272 C56.772,67.4880161 57.3479942,70.1879891 58.5,72.372 C59.6520058,74.5560109 61.1759905,76.1759947 63.072,77.232 C64.9680095,78.2880053 67.0679885,78.816 69.372,78.816 C72.5400158,78.816 75.1919893,78.0000082 77.328,76.368 C79.4640107,74.7359918 80.7719976,72.5040142 81.252,69.672 L88.164,69.672 C87.3959962,74.2320228 85.3560166,77.8439867 82.044,80.508 C78.7319834,83.1720133 74.5560252,84.504 69.516,84.504 C65.723981,84.504 62.3640146,83.6880082 59.436,82.056 C56.5079854,80.4239918 54.2160083,78.0840152 52.56,75.036 C50.9039917,71.9879848 50.076,68.4000206 50.076,64.272 C50.076,60.1439794 50.9039917,56.5440154 52.56,53.472 C54.2160083,50.3999846 56.5079854,48.0480082 59.436,46.416 C62.3640146,44.7839918 65.723981,43.968 69.516,43.968 Z M115.596,78.24 L115.596,84 L110.7,84 C106.66798,84 103.65601,83.0400096 101.664,81.12 C99.67199,79.1999904 98.676,75.9840226 98.676,71.472 L98.676,50.16 L92.772,50.16 L92.772,44.472 L98.676,44.472 L98.676,34.608 L105.3,34.608 L105.3,44.472 L115.524,44.472 L115.524,50.16 L105.3,50.16 L105.3,71.616 C105.3,74.1600127 105.767995,75.8999953 106.704,76.836 C107.640005,77.7720047 109.259988,78.24 111.564,78.24 L115.596,78.24 Z M122.436,36.88 C122.436,35.679994 122.843996,34.7080037 123.66,33.964 C124.476004,33.2199963 125.555993,32.848 126.9,32.848 C128.244007,32.848 129.323996,33.2199963 130.14,33.964 C130.956004,34.7080037 131.364,35.679994 131.364,36.88 C131.364,38.080006 130.956004,39.0519963 130.14,39.796 C129.323996,40.5400037 128.244007,40.912 126.9,40.912 C125.555993,40.912 124.476004,40.5400037 123.66,39.796 C122.843996,39.0519963 122.436,38.080006 122.436,36.88 Z M130.14,44.472 L130.14,84 L123.588,84 L123.588,44.472 L130.14,44.472 Z M155.988,77.016 L168.228,44.472 L175.284,44.472 L159.804,84 L152.028,84 L136.548,44.472 L143.604,44.472 L155.988,77.016 Z M188.244,44.472 L188.244,84 L181.692,84 L181.692,44.472 L188.244,44.472 Z M219.564,43.824 C224.172023,43.824 227.891986,45.2999852 230.724,48.252 C233.556014,51.2040148 234.972,55.4639722 234.972,61.032 L234.972,84 L228.42,84 L228.42,61.608 C228.42,57.6719803 227.41201,54.6480106 225.396,52.536 C223.37999,50.4239894 220.644017,49.368 217.188,49.368 C213.587982,49.368 210.708011,50.5319884 208.548,52.86 C206.387989,55.1880116 205.308,58.5839777 205.308,63.048 L205.308,84 L198.756,84 L198.756,44.472 L205.308,44.472 L205.308,53.832 C206.316005,50.6159839 208.103987,48.1440086 210.672,46.416 C213.240013,44.6879914 216.203983,43.824 219.564,43.824 Z M261.252,43.968 C265.092019,43.968 268.343987,44.9279904 271.008,46.848 C273.672013,48.7680096 275.531995,51.3359839 276.588,54.552 L276.588,30.72 L283.14,30.72 L283.14,84 L276.588,84 L276.588,73.92 C275.531995,77.1360161 273.672013,79.7039904 271.008,81.624 C268.343987,83.5440096 265.092019,84.504 261.252,84.504 C257.747982,84.504 254.628014,83.6880082 251.892,82.056 C249.155986,80.4239918 247.008008,78.0840152 245.448,75.036 C243.887992,71.9879848 243.108,68.4000206 243.108,64.272 C243.108,60.1439794 243.887992,56.5440154 245.448,53.472 C247.008008,50.3999846 249.155986,48.0480082 251.892,46.416 C254.628014,44.7839918 257.747982,43.968 261.252,43.968 Z M263.124,49.8 C259.09198,49.8 255.864012,51.0839872 253.44,53.652 C251.015988,56.2200128 249.804,59.7599774 249.804,64.272 C249.804,68.7840226 251.015988,72.3239872 253.44,74.892 C255.864012,77.4600128 259.09198,78.744 263.124,78.744 C265.716013,78.744 268.03199,78.144006 270.072,76.944 C272.11201,75.743994 273.707994,74.0520109 274.86,71.868 C276.012006,69.6839891 276.588,67.1520144 276.588,64.272 C276.588,61.3919856 276.012006,58.848011 274.86,56.64 C273.707994,54.431989 272.11201,52.7400059 270.072,51.564 C268.03199,50.3879941 265.716013,49.8 263.124,49.8 Z M329.94,62.04 C329.94,63.432007 329.844001,64.631995 329.652,65.64 L298.044,65.64 C298.188001,70.1520226 299.471988,73.5359887 301.896,75.792 C304.320012,78.0480113 307.283982,79.176 310.788,79.176 C313.956016,79.176 316.607989,78.372008 318.744,76.764 C320.880011,75.155992 322.187998,73.0080134 322.668,70.32 L329.652,70.32 C329.171998,73.0560137 328.104008,75.5039892 326.448,77.664 C324.791992,79.8240108 322.644013,81.503994 320.004,82.704 C317.363987,83.904006 314.388017,84.504 311.076,84.504 C307.283981,84.504 303.924015,83.6880082 300.996,82.056 C298.067985,80.4239918 295.776008,78.0840152 294.12,75.036 C292.463992,71.9879848 291.636,68.4000206 291.636,64.272 C291.636,60.1439794 292.463992,56.5440154 294.12,53.472 C295.776008,50.3999846 298.067985,48.0480082 300.996,46.416 C303.924015,44.7839918 307.283981,43.968 311.076,43.968 C314.916019,43.968 318.263986,44.7839918 321.12,46.416 C323.976014,48.0480082 326.159992,50.2319863 327.672,52.968 C329.184008,55.7040137 329.94,58.7279834 329.94,62.04 Z M323.316,62.472 C323.460001,59.5439854 322.980006,57.0960098 321.876,55.128 C320.771994,53.1599902 319.26001,51.6960048 317.34,50.736 C315.41999,49.7759952 313.332011,49.296 311.076,49.296 C307.475982,49.296 304.452012,50.4119888 302.004,52.644 C299.555988,54.8760112 298.236001,58.1519784 298.044,62.472 L323.316,62.472 Z M345.06,52.464 C346.356006,49.7279863 348.251988,47.6040076 350.748,46.092 C353.244012,44.5799924 356.219983,43.824 359.676,43.824 L359.676,50.952 L357.66,50.952 C353.963982,50.952 350.940012,51.8999905 348.588,53.796 C346.235988,55.6920095 345.06,58.8239782 345.06,63.192 L345.06,84 L338.508,84 L338.508,44.472 L345.06,44.472 L345.06,52.464 Z" id="Activinder" fill-opacity="0.69457654" fill="#000000"></path>
            <g id="placeholder-filled-point" transform="translate(171.000000, 0.000000)" fill="url(#linearGradient-1)" fill-rule="nonzero">
                <path d="M13.9994162,0 C6.28051204,0 0,6.2760357 0,13.9902161 C0,16.0023743 0.412136712,17.9235304 1.2243457,19.7007942 C4.72458893,27.3546954 11.4355289,35.4356067 13.4094264,37.7297159 C13.557313,37.9012199 13.7729162,38 13.9998054,38 C14.2266947,38 14.4422978,37.9012199 14.5901844,37.7297159 C16.5633035,35.4359956 23.2742435,27.3554732 26.7756543,19.7007942 C27.5882525,17.9235304 28,16.0023743 28,13.9902161 C27.9992216,6.2760357 21.7187096,0 13.9994162,0 Z M13.9994162,21.256775 C9.98974245,21.256775 6.72728536,17.9966432 6.72728536,13.9898272 C6.72728536,9.9826224 9.98974245,6.72249058 13.9994162,6.72249058 C18.00909,6.72249058 21.2715471,9.9826224 21.2715471,13.9898272 C21.2719363,17.9966432 18.0094792,21.256775 13.9994162,21.256775 Z" id="Shape"></path>
            </g>
        </g>
    </g>
</svg>